<svg width="1200" height="760" viewBox="0 0 1200 760" fill="none" xmlns="http://www.w3.org/2000/svg">
  <rect width="1200" height="760" rx="36" fill="#F7FAFC"/>
  <rect x="54" y="54" width="1092" height="652" rx="28" fill="white" stroke="#D8E1EE"/>
  <rect x="90" y="90" width="1020" height="92" rx="22" fill="#EAF2FF"/>
  <circle cx="136" cy="136" r="28" fill="#5B5CE2"/>
  <path d="M130 123L148 136L130 149" stroke="white" stroke-width="8" stroke-linecap="round" stroke-linejoin="round"/>
  <text x="186" y="128" fill="#0F172A" font-size="28" font-family="Arial, Helvetica, sans-serif" font-weight="700">KBZPay</text>
  <text x="186" y="156" fill="#475569" font-size="18" font-family="Arial, Helvetica, sans-serif">Payment screenshot confirmed for ZOS-10027</text>
  <rect x="90" y="214" width="470" height="452" rx="24" fill="#F8FAFC" stroke="#E2E8F0"/>
  <text x="126" y="264" fill="#334155" font-size="18" font-family="Arial, Helvetica, sans-serif" font-weight="700">Payment details</text>
  <text x="126" y="308" fill="#64748B" font-size="16" font-family="Arial, Helvetica, sans-serif">Customer</text>
  <text x="300" y="308" fill="#0F172A" font-size="16" font-family="Arial, Helvetica, sans-serif" font-weight="700">Ma Hnin Ei</text>
  <text x="126" y="350" fill="#64748B" font-size="16" font-family="Arial, Helvetica, sans-serif">Method</text>
  <text x="300" y="350" fill="#0F172A" font-size="16" font-family="Arial, Helvetica, sans-serif" font-weight="700">KBZPay</text>
  <text x="126" y="392" fill="#64748B" font-size="16" font-family="Arial, Helvetica, sans-serif">Amount</text>
  <text x="300" y="392" fill="#0F172A" font-size="16" font-family="Arial, Helvetica, sans-serif" font-weight="700">MMK 48,000</text>
  <text x="126" y="434" fill="#64748B" font-size="16" font-family="Arial, Helvetica, sans-serif">Order</text>
  <text x="300" y="434" fill="#0F172A" font-size="16" font-family="Arial, Helvetica, sans-serif" font-weight="700">ZOS-10027</text>
  <rect x="608" y="214" width="466" height="452" rx="24" fill="#0F172A"/>
  <rect x="642" y="248" width="398" height="38" rx="14" fill="#1E293B"/>
  <rect x="642" y="306" width="398" height="58" rx="18" fill="#1E3A8A"/>
  <rect x="642" y="380" width="398" height="58" rx="18" fill="#2563EB"/>
  <rect x="642" y="454" width="398" height="58" rx="18" fill="#0EA5E9"/>
  <text x="676" y="331" fill="white" font-size="18" font-family="Arial, Helvetica, sans-serif" font-weight="700">Transferred successfully</text>
  <text x="676" y="405" fill="white" font-size="18" font-family="Arial, Helvetica, sans-serif" font-weight="700">Verified by sales team</text>
  <text x="676" y="479" fill="white" font-size="18" font-family="Arial, Helvetica, sans-serif" font-weight="700">Ready for delivery arrangement</text>
  <text x="90" y="706" fill="#64748B" font-size="15" font-family="Arial, Helvetica, sans-serif">Demo placeholder for presenter workflow. Use this screenshot to confirm payment before delivery.</text>
</svg>
